<?xml version="1.0" encoding="utf-8" standalone="no"?>
<!DOCTYPE svg PUBLIC "-//W3C//DTD SVG 1.1//EN"
  "http://www.w3.org/Graphics/SVG/1.1/DTD/svg11.dtd">
<svg xmlns:xlink="http://www.w3.org/1999/xlink" width="433.160992pt" height="215.28pt" viewBox="0 0 433.160992 215.28" xmlns="http://www.w3.org/2000/svg" version="1.1">
 <metadata>
  <rdf:RDF xmlns:dc="http://purl.org/dc/elements/1.1/" xmlns:cc="http://creativecommons.org/ns#" xmlns:rdf="http://www.w3.org/1999/02/22-rdf-syntax-ns#">
   <cc:Work>
    <dc:type rdf:resource="http://purl.org/dc/dcmitype/StillImage"/>
    <dc:date>2024-06-27T11:52:19.238065</dc:date>
    <dc:format>image/svg+xml</dc:format>
    <dc:creator>
     <cc:Agent>
      <dc:title>Matplotlib v3.8.3, https://matplotlib.org/</dc:title>
     </cc:Agent>
    </dc:creator>
   </cc:Work>
  </rdf:RDF>
 </metadata>
 <defs>
  <style type="text/css">*{stroke-linejoin: round; stroke-linecap: butt}</style>
 </defs>
 <g id="figure_1">
  <g id="patch_1">
   <path d="M 0 215.28 
L 433.160992 215.28 
L 433.160992 0 
L 0 0 
L 0 215.28 
z
" style="fill: none"/>
  </g>
  <g id="axes_1">
   <g id="patch_2">
    <path d="M 51.509226 136.113288 
C 56.270055 136.113288 60.836534 134.221791 64.202949 130.855376 
C 67.569363 127.488961 69.460861 122.922482 69.460861 118.161653 
C 69.460861 113.400824 67.569363 108.834345 64.202949 105.46793 
C 60.836534 102.101515 56.270055 100.210018 51.509226 100.210018 
C 46.748396 100.210018 42.181917 102.101515 38.815503 105.46793 
C 35.449088 108.834345 33.55759 113.400824 33.55759 118.161653 
C 33.55759 122.922482 35.449088 127.488961 38.815503 130.855376 
C 42.181917 134.221791 46.748396 136.113288 51.509226 136.113288 
L 51.509226 136.113288 
z
" clip-path="url(#p8f8a045c6a)" style="fill: none; stroke: #000000; stroke-width: 2; stroke-linejoin: miter"/>
   </g>
   <g id="patch_3">
    <path d="M 410.541932 136.113288 
C 415.302761 136.113288 419.86924 134.221791 423.235655 130.855376 
C 426.60207 127.488961 428.493567 122.922482 428.493567 118.161653 
C 428.493567 113.400824 426.60207 108.834345 423.235655 105.46793 
C 419.86924 102.101515 415.302761 100.210018 410.541932 100.210018 
C 405.781103 100.210018 401.214624 102.101515 397.848209 105.46793 
C 394.481794 108.834345 392.590297 113.400824 392.590297 118.161653 
C 392.590297 122.922482 394.481794 127.488961 397.848209 130.855376 
C 401.214624 134.221791 405.781103 136.113288 410.541932 136.113288 
L 410.541932 136.113288 
z
" clip-path="url(#p8f8a045c6a)" style="fill: none; stroke: #000000; stroke-width: 2; stroke-linejoin: miter"/>
   </g>
   <g id="line2d_1">
    <path d="M 51.509226 207.91983 
L 51.509226 136.113288 
L 51.509226 136.113288 
M 51.509226 100.210018 
L 51.509226 100.210018 
L 51.509226 28.403476 
" clip-path="url(#p8f8a045c6a)" style="fill: none; stroke: #000000; stroke-width: 2; stroke-linecap: round"/>
   </g>
   <g id="line2d_2">
    <path d="M 55.099553 127.137471 
L 47.918899 127.137471 
" clip-path="url(#p8f8a045c6a)" style="fill: none; stroke: #000000; stroke-width: 2; stroke-linecap: round"/>
   </g>
   <g id="line2d_3">
    <path d="M 51.509226 112.776162 
L 51.509226 105.595508 
" clip-path="url(#p8f8a045c6a)" style="fill: none; stroke: #000000; stroke-width: 2; stroke-linecap: round"/>
   </g>
   <g id="line2d_4">
    <path d="M 55.099553 109.185835 
L 47.918899 109.185835 
" clip-path="url(#p8f8a045c6a)" style="fill: none; stroke: #000000; stroke-width: 2; stroke-linecap: round"/>
   </g>
   <g id="line2d_5">
    <path d="M 51.509226 28.403476 
L 123.315767 28.403476 
L 126.307706 19.427659 
L 132.291585 37.379294 
L 138.275463 19.427659 
L 144.259341 37.379294 
L 150.24322 19.427659 
L 156.227098 37.379294 
L 159.219038 28.403476 
L 231.025579 28.403476 
" clip-path="url(#p8f8a045c6a)" style="fill: none; stroke: #000000; stroke-width: 2; stroke-linecap: round"/>
   </g>
   <g id="line2d_6">
    <path d="M 231.025579 28.403476 
L 231.025579 100.210018 
L 240.001396 103.201957 
L 222.049761 109.185835 
L 240.001396 115.169714 
L 222.049761 121.153592 
L 240.001396 127.137471 
L 222.049761 133.121349 
L 231.025579 136.113288 
L 231.025579 207.91983 
" clip-path="url(#p8f8a045c6a)" style="fill: none; stroke: #000000; stroke-width: 2; stroke-linecap: round"/>
   </g>
   <g id="line2d_7">
    <path d="M 231.025579 28.403476 
L 320.783755 28.403476 
L 410.541932 28.403476 
" clip-path="url(#p8f8a045c6a)" style="fill: none; stroke: #000000; stroke-width: 2; stroke-linecap: round"/>
   </g>
   <g id="line2d_8">
    <path d="M 410.541932 28.403476 
L 410.541932 100.210018 
L 410.541932 100.210018 
M 410.541932 136.113288 
L 410.541932 136.113288 
L 410.541932 207.91983 
" clip-path="url(#p8f8a045c6a)" style="fill: none; stroke: #000000; stroke-width: 2; stroke-linecap: round"/>
   </g>
   <g id="line2d_9">
    <path d="M 410.541932 109.185835 
L 410.541932 118.161653 
" clip-path="url(#p8f8a045c6a)" style="fill: none; stroke: #000000; stroke-width: 2; stroke-linecap: round"/>
   </g>
   <g id="patch_4">
    <path d="M 413.234677 118.161653 
L 410.541932 127.137471 
L 407.849187 118.161653 
z
" clip-path="url(#p8f8a045c6a)"/>
   </g>
   <g id="line2d_10">
    <path d="M 410.541932 207.91983 
L 320.783755 207.91983 
L 231.025579 207.91983 
" clip-path="url(#p8f8a045c6a)" style="fill: none; stroke: #000000; stroke-width: 2; stroke-linecap: round"/>
   </g>
   <g id="line2d_11">
    <path d="M 231.025579 207.91983 
L 141.267402 207.91983 
L 51.509226 207.91983 
" clip-path="url(#p8f8a045c6a)" style="fill: none; stroke: #000000; stroke-width: 2; stroke-linecap: round"/>
   </g>
   <g id="text_1">
    <!-- 20V -->
    <g transform="translate(2.575388 122.024778) scale(0.14 -0.14)">
     <defs>
      <path id="DejaVuSans-32" d="M 1228 531 
L 3431 531 
L 3431 0 
L 469 0 
L 469 531 
Q 828 903 1448 1529 
Q 2069 2156 2228 2338 
Q 2531 2678 2651 2914 
Q 2772 3150 2772 3378 
Q 2772 3750 2511 3984 
Q 2250 4219 1831 4219 
Q 1534 4219 1204 4116 
Q 875 4013 500 3803 
L 500 4441 
Q 881 4594 1212 4672 
Q 1544 4750 1819 4750 
Q 2544 4750 2975 4387 
Q 3406 4025 3406 3419 
Q 3406 3131 3298 2873 
Q 3191 2616 2906 2266 
Q 2828 2175 2409 1742 
Q 1991 1309 1228 531 
z
" transform="scale(0.015625)"/>
      <path id="DejaVuSans-30" d="M 2034 4250 
Q 1547 4250 1301 3770 
Q 1056 3291 1056 2328 
Q 1056 1369 1301 889 
Q 1547 409 2034 409 
Q 2525 409 2770 889 
Q 3016 1369 3016 2328 
Q 3016 3291 2770 3770 
Q 2525 4250 2034 4250 
z
M 2034 4750 
Q 2819 4750 3233 4129 
Q 3647 3509 3647 2328 
Q 3647 1150 3233 529 
Q 2819 -91 2034 -91 
Q 1250 -91 836 529 
Q 422 1150 422 2328 
Q 422 3509 836 4129 
Q 1250 4750 2034 4750 
z
" transform="scale(0.015625)"/>
      <path id="DejaVuSans-56" d="M 1831 0 
L 50 4666 
L 709 4666 
L 2188 738 
L 3669 4666 
L 4325 4666 
L 2547 0 
L 1831 0 
z
" transform="scale(0.015625)"/>
     </defs>
     <use xlink:href="#DejaVuSans-32"/>
     <use xlink:href="#DejaVuSans-30" x="63.623047"/>
     <use xlink:href="#DejaVuSans-56" x="127.246094"/>
    </g>
   </g>
   <g id="text_2">
    <!-- 400Ω -->
    <g transform="translate(122.556621 12.925769) scale(0.14 -0.14)">
     <defs>
      <path id="DejaVuSans-34" d="M 2419 4116 
L 825 1625 
L 2419 1625 
L 2419 4116 
z
M 2253 4666 
L 3047 4666 
L 3047 1625 
L 3713 1625 
L 3713 1100 
L 3047 1100 
L 3047 0 
L 2419 0 
L 2419 1100 
L 313 1100 
L 313 1709 
L 2253 4666 
z
" transform="scale(0.015625)"/>
      <path id="DejaVuSans-3a9" d="M 4647 556 
L 4647 0 
L 2772 0 
L 2772 556 
Q 3325 859 3634 1378 
Q 3944 1897 3944 2528 
Q 3944 3278 3531 3731 
Q 3119 4184 2444 4184 
Q 1769 4184 1355 3729 
Q 941 3275 941 2528 
Q 941 1897 1250 1378 
Q 1563 859 2119 556 
L 2119 0 
L 244 0 
L 244 556 
L 1241 556 
Q 747 991 519 1456 
Q 294 1922 294 2497 
Q 294 3491 894 4106 
Q 1491 4722 2444 4722 
Q 3391 4722 3994 4106 
Q 4594 3494 4594 2528 
Q 4594 1922 4372 1459 
Q 4150 997 3647 556 
L 4647 556 
z
" transform="scale(0.015625)"/>
     </defs>
     <use xlink:href="#DejaVuSans-34"/>
     <use xlink:href="#DejaVuSans-30" x="63.623047"/>
     <use xlink:href="#DejaVuSans-30" x="127.246094"/>
     <use xlink:href="#DejaVuSans-3a9" x="190.869141"/>
    </g>
   </g>
   <g id="text_3">
    <!-- 100Ω -->
    <g transform="translate(181.037872 122.024778) scale(0.14 -0.14)">
     <defs>
      <path id="DejaVuSans-31" d="M 794 531 
L 1825 531 
L 1825 4091 
L 703 3866 
L 703 4441 
L 1819 4666 
L 2450 4666 
L 2450 531 
L 3481 531 
L 3481 0 
L 794 0 
L 794 531 
z
" transform="scale(0.015625)"/>
     </defs>
     <use xlink:href="#DejaVuSans-31"/>
     <use xlink:href="#DejaVuSans-30" x="63.623047"/>
     <use xlink:href="#DejaVuSans-30" x="127.246094"/>
     <use xlink:href="#DejaVuSans-3a9" x="190.869141"/>
    </g>
   </g>
   <g id="text_4">
    <!-- 1A -->
    <g transform="translate(370.515595 122.024778) scale(0.14 -0.14)">
     <defs>
      <path id="DejaVuSans-41" d="M 2188 4044 
L 1331 1722 
L 3047 1722 
L 2188 4044 
z
M 1831 4666 
L 2547 4666 
L 4325 0 
L 3669 0 
L 3244 1197 
L 1141 1197 
L 716 0 
L 50 0 
L 1831 4666 
z
" transform="scale(0.015625)"/>
     </defs>
     <use xlink:href="#DejaVuSans-31"/>
     <use xlink:href="#DejaVuSans-41" x="63.623047"/>
    </g>
   </g>
   <g id="patch_5">
    <path d="M 231.025579 31.096222 
C 231.739703 31.096222 232.424675 30.812497 232.929637 30.307535 
C 233.434599 29.802573 233.718324 29.117601 233.718324 28.403476 
C 233.718324 27.689352 233.434599 27.00438 232.929637 26.499418 
C 232.424675 25.994456 231.739703 25.710731 231.025579 25.710731 
C 230.311454 25.710731 229.626483 25.994456 229.12152 26.499418 
C 228.616558 27.00438 228.332834 27.689352 228.332834 28.403476 
C 228.332834 29.117601 228.616558 29.802573 229.12152 30.307535 
C 229.626483 30.812497 230.311454 31.096222 231.025579 31.096222 
z
" clip-path="url(#p8f8a045c6a)" style="stroke: #000000; stroke-width: 2; stroke-linejoin: miter"/>
   </g>
   <g id="patch_6">
    <path d="M 231.025579 210.612575 
C 231.739703 210.612575 232.424675 210.32885 232.929637 209.823888 
C 233.434599 209.318926 233.718324 208.633954 233.718324 207.91983 
C 233.718324 207.205705 233.434599 206.520733 232.929637 206.015771 
C 232.424675 205.510809 231.739703 205.227084 231.025579 205.227084 
C 230.311454 205.227084 229.626483 205.510809 229.12152 206.015771 
C 228.616558 206.520733 228.332834 207.205705 228.332834 207.91983 
C 228.332834 208.633954 228.616558 209.318926 229.12152 209.823888 
C 229.626483 210.32885 230.311454 210.612575 231.025579 210.612575 
z
" clip-path="url(#p8f8a045c6a)" style="stroke: #000000; stroke-width: 2; stroke-linejoin: miter"/>
   </g>
  </g>
 </g>
 <defs>
  <clipPath id="p8f8a045c6a">
   <rect x="0" y="0" width="433.160992" height="215.28"/>
  </clipPath>
 </defs>
</svg>
